<mxfile host="app.diagrams.net" modified="2022-01-08T17:49:52.093Z" agent="5.0 (Windows NT 10.0; Win64; x64) AppleWebKit/537.36 (KHTML, like Gecko) Chrome/97.0.4692.71 Safari/537.36" etag="F9CMO8wQNqq3Q3Io_CyS" version="16.2.3" type="github">
  <diagram id="kgpKYQtTHZ0yAKxKKP6v" name="Page-1">
    <mxGraphModel dx="1038" dy="539" grid="1" gridSize="10" guides="1" tooltips="1" connect="1" arrows="1" fold="1" page="1" pageScale="1" pageWidth="850" pageHeight="1100" math="0" shadow="0">
      <root>
        <mxCell id="0" />
        <mxCell id="1" parent="0" />
        <mxCell id="J1fd0d7HcE3VnsAOysy8-1" value="" style="shape=cube;whiteSpace=wrap;html=1;boundedLbl=1;backgroundOutline=1;darkOpacity=0.05;darkOpacity2=0.1;" vertex="1" parent="1">
          <mxGeometry x="90" y="210" width="120" height="170" as="geometry" />
        </mxCell>
        <mxCell id="J1fd0d7HcE3VnsAOysy8-2" value="Torch&lt;br&gt;&lt;br&gt;batch*4*6&lt;br&gt;4- feature&lt;br&gt;6- time series of the features" style="text;html=1;strokeColor=none;fillColor=none;align=center;verticalAlign=middle;whiteSpace=wrap;rounded=0;" vertex="1" parent="1">
          <mxGeometry x="110" y="250" width="100" height="30" as="geometry" />
        </mxCell>
        <mxCell id="J1fd0d7HcE3VnsAOysy8-4" value="LSTM" style="shape=trapezoid;perimeter=trapezoidPerimeter;whiteSpace=wrap;html=1;fixedSize=1;rotation=90;" vertex="1" parent="1">
          <mxGeometry x="250" y="240" width="175" height="97.5" as="geometry" />
        </mxCell>
        <mxCell id="J1fd0d7HcE3VnsAOysy8-6" value="" style="whiteSpace=wrap;html=1;aspect=fixed;" vertex="1" parent="1">
          <mxGeometry x="630" y="268.75" width="40" height="40" as="geometry" />
        </mxCell>
        <mxCell id="J1fd0d7HcE3VnsAOysy8-7" value="Output : &lt;br&gt;0 or 1" style="text;html=1;strokeColor=none;fillColor=none;align=center;verticalAlign=middle;whiteSpace=wrap;rounded=0;" vertex="1" parent="1">
          <mxGeometry x="620" y="320" width="60" height="30" as="geometry" />
        </mxCell>
        <mxCell id="J1fd0d7HcE3VnsAOysy8-8" value="" style="endArrow=classic;html=1;rounded=0;entryX=0.5;entryY=1;entryDx=0;entryDy=0;exitX=0.5;exitY=0;exitDx=0;exitDy=0;" edge="1" parent="1" source="J1fd0d7HcE3VnsAOysy8-4" target="J1fd0d7HcE3VnsAOysy8-5">
          <mxGeometry width="50" height="50" relative="1" as="geometry">
            <mxPoint x="410" y="290" as="sourcePoint" />
            <mxPoint x="460" y="240" as="targetPoint" />
          </mxGeometry>
        </mxCell>
        <mxCell id="J1fd0d7HcE3VnsAOysy8-10" value="" style="endArrow=classic;html=1;rounded=0;entryX=0.5;entryY=1;entryDx=0;entryDy=0;exitX=0.5;exitY=0;exitDx=0;exitDy=0;startArrow=none;" edge="1" parent="1" source="J1fd0d7HcE3VnsAOysy8-5">
          <mxGeometry width="50" height="50" relative="1" as="geometry">
            <mxPoint x="396.25" y="298.75" as="sourcePoint" />
            <mxPoint x="463.125" y="298.75" as="targetPoint" />
          </mxGeometry>
        </mxCell>
        <mxCell id="J1fd0d7HcE3VnsAOysy8-5" value="Linear" style="shape=trapezoid;perimeter=trapezoidPerimeter;whiteSpace=wrap;html=1;fixedSize=1;rotation=90;" vertex="1" parent="1">
          <mxGeometry x="450" y="240" width="123.75" height="97.5" as="geometry" />
        </mxCell>
        <mxCell id="J1fd0d7HcE3VnsAOysy8-13" value="" style="endArrow=classic;html=1;rounded=0;entryX=0;entryY=0.5;entryDx=0;entryDy=0;exitX=0.5;exitY=0;exitDx=0;exitDy=0;" edge="1" parent="1" source="J1fd0d7HcE3VnsAOysy8-5" target="J1fd0d7HcE3VnsAOysy8-6">
          <mxGeometry width="50" height="50" relative="1" as="geometry">
            <mxPoint x="573.75" y="288.25" as="sourcePoint" />
            <mxPoint x="650.625" y="288.25" as="targetPoint" />
          </mxGeometry>
        </mxCell>
        <mxCell id="J1fd0d7HcE3VnsAOysy8-14" value="" style="endArrow=classic;html=1;rounded=0;entryX=0.5;entryY=1;entryDx=0;entryDy=0;exitX=0.5;exitY=0;exitDx=0;exitDy=0;" edge="1" parent="1">
          <mxGeometry width="50" height="50" relative="1" as="geometry">
            <mxPoint x="210" y="294.5" as="sourcePoint" />
            <mxPoint x="286.875" y="294.5" as="targetPoint" />
          </mxGeometry>
        </mxCell>
      </root>
    </mxGraphModel>
  </diagram>
</mxfile>
